<?xml version="1.0" standalone="no"?><!DOCTYPE svg PUBLIC "-//W3C//DTD SVG 1.1//EN" "http://www.w3.org/Graphics/SVG/1.1/DTD/svg11.dtd"><svg t="1718324082899" class="icon" viewBox="0 0 1024 1024" version="1.1" xmlns="http://www.w3.org/2000/svg" p-id="6773" xmlns:xlink="http://www.w3.org/1999/xlink" width="200" height="200"><path d="M830.72 205.077333a42.666667 42.666667 0 0 1 1.408 57.664l-2.538667 2.666667L573.504 512l256.085333 246.613333a42.666667 42.666667 0 0 1-56.426666 63.893334l-2.773334-2.432L512 571.221333 253.589333 820.074667a42.666667 42.666667 0 0 1-61.717333-58.816l2.538667-2.666667L450.474667 512 194.410667 265.386667a42.666667 42.666667 0 0 1 56.426666-63.893334l2.773334 2.432 258.368 248.832L770.410667 203.925333a42.666667 42.666667 0 0 1 60.330666 1.152z" fill="#000000" p-id="6774"></path></svg>