<?xml version="1.0" standalone="no"?><!DOCTYPE svg PUBLIC "-//W3C//DTD SVG 1.1//EN" "http://www.w3.org/Graphics/SVG/1.1/DTD/svg11.dtd"><svg t="1718324671641" class="icon" viewBox="0 0 1024 1024" version="1.1" xmlns="http://www.w3.org/2000/svg" p-id="21803" xmlns:xlink="http://www.w3.org/1999/xlink" width="200" height="200"><path d="M110.08 811.093333l-0.853333 0.853334c-11.52-25.173333-18.773333-53.76-21.76-85.333334 2.986667 31.146667 11.093333 59.306667 22.613333 84.48zM384 442.88a101.546667 101.546667 0 1 0 0-203.093333 101.546667 101.546667 0 0 0 0 203.093333z" fill="#000000" p-id="21804"></path><path d="M690.773333 85.333333H333.226667C177.92 85.333333 85.333333 177.92 85.333333 333.226667v357.546666c0 46.506667 8.106667 87.04 23.893334 121.173334 36.693333 81.066667 115.2 126.72 224 126.72h357.546666c155.306667 0 247.893333-92.586667 247.893334-247.893334V333.226667C938.666667 177.92 846.08 85.333333 690.773333 85.333333z m178.346667 448c-33.28-28.586667-87.04-28.586667-120.32 0l-177.493333 152.32c-33.28 28.586667-87.04 28.586667-120.32 0l-14.506667-11.946666c-30.293333-26.453333-78.506667-29.013333-112.64-5.973334l-159.573333 107.093334c-9.386667-23.893333-14.933333-51.626667-14.933334-84.053334V333.226667c0-120.32 63.573333-183.893333 183.893334-183.893334h357.546666c120.32 0 183.893333 63.573333 183.893334 183.893334v204.8l-5.546667-4.693334z" fill="#000000" p-id="21805"></path></svg>