<?xml version="1.0" standalone="no"?><!DOCTYPE svg PUBLIC "-//W3C//DTD SVG 1.1//EN" "http://www.w3.org/Graphics/SVG/1.1/DTD/svg11.dtd"><svg t="1718324779574" class="icon" viewBox="0 0 1024 1024" version="1.1" xmlns="http://www.w3.org/2000/svg" p-id="23879" xmlns:xlink="http://www.w3.org/1999/xlink" width="200" height="200"><path d="M853.989313 0 170.010687 0C76.509609 0 0 76.509609 0 170.010687l0 683.978626c0 93.501078 76.509609 170.010687 170.010687 170.010687l683.978626 0c93.501078 0 170.010687-76.509609 170.010687-170.010687L1023.968001 170.010687C1023.968001 76.509609 947.458392 0 853.989313 0zM327.797756 447.986l368.372488 0c6.975782 20.063373 10.815662 41.5987 10.815662 63.998 0 107.51664-87.485266 195.001906-195.001906 195.001906-107.51664 0-195.001906-87.485266-195.001906-195.001906C316.982094 489.5847 320.789975 468.049373 327.797756 447.986zM895.972001 448.049998 895.972001 703.978001l0 127.996c0 35.1989-28.7991 63.998-63.998 63.998L191.994 895.972001c-35.1989 0-63.998-28.7991-63.998-63.998l0-127.996L127.996 448.049998 127.996 447.986l100.092872 0c-4.639855 20.607356-7.103778 42.014687-7.103778 63.998 0 160.442986 130.523921 290.998906 290.998906 290.998906 160.442986 0 290.998906-130.523921 290.998906-290.998906 0-21.983313-2.463923-43.390644-7.103778-63.998L895.972001 447.986 895.972001 448.049998zM895.972001 223.993c0 17.59945-14.39955 31.999-31.999 31.999l-63.998 0c-17.59945 0-31.999-14.39955-31.999-31.999L767.976001 159.995c0-17.59945 14.39955-31.999 31.999-31.999l63.998 0c17.59945 0 31.999 14.39955 31.999 31.999L895.972001 223.993z" fill="#000000" p-id="23880"></path></svg>